HIERARCHY
ROOT ui
{
	 OFFSET 0 0 0
	 CHANNELS 3 XPosition YPosition Z Position
	 EndSite
	 {
	 OFFSET 0 -1 0
	 }
}
ROOT li
{
	 OFFSET 0 0 0
	 CHANNELS 3 XPosition YPosition Z Position
	 EndSite
	 {
	 OFFSET 0 -1 0
	 }
}
ROOT ul
{
	 OFFSET 0 0 0
	 CHANNELS 3 XPosition YPosition Z Position
	 EndSite
	 {
	 OFFSET 0 -1 0
	 }
}
ROOT ll
{
	 OFFSET 0 0 0
	 CHANNELS 3 XPosition YPosition Z Position
	 EndSite
	 {
	 OFFSET 0 -1 0
	 }
}
ROOT tt
{
	 OFFSET 0 0 0
	 CHANNELS 3 XPosition YPosition Z Position
	 EndSite
	 {
	 OFFSET 0 -1 0
	 }
}
ROOT tb
{
	 OFFSET 0 0 0
	 CHANNELS 3 XPosition YPosition Z Position
	 EndSite
	 {
	 OFFSET 0 -1 0
	 }
}
ROOT td
{
	 OFFSET 0 0 0
	 CHANNELS 3 XPosition YPosition Z Position
	 EndSite
	 {
	 OFFSET 0 -1 0
	 }
}
ROOT v
{
	 OFFSET 0 0 0
	 CHANNELS 3 XPosition YPosition Z Position
	 EndSite
	 {
	 OFFSET 0 -1 0
	 }
}
ROOT bn
{
	 OFFSET 0 0 0
	 CHANNELS 3 XPosition YPosition Z Position
	 EndSite
	 {
	 OFFSET 0 -1 0
	 }
}
MOTION
Frames: 29
Frame Time: 0.002
0.005784554958343506	-0.0015929739475250245	0		0.5423306274414063	-2.321115234375	0		-1.0758980712890625	-0.05277616500854492	0		-0.7655775146484375	-2.3056123046875	0		1.6515645751953125	-0.5361367797851563	0		3.329029541015625	-0.08498686218261718	0		4.79604833984375	0.07663697814941406	0		5.65737646484375	0.23047650146484375	0		-0.4228446350097656	5.8538984375	0		
0.018160253524780273	-0.015728119850158692	0		0.5136163330078125	-2.31683154296875	0		-1.122273193359375	-0.045061752319335936	0		-0.7693634033203125	-2.3074541015625	0		1.649050048828125	-0.5353121948242188	0		3.326574951171875	-0.084385498046875	0		4.7836279296875	0.07816291809082031	0		5.6598212890625	0.2135814208984375	0		-0.40940213012695315	5.86381884765625	0		
0.02596612358093262	-8.3542799949646E-4	0		0.5498546752929687	-2.323355712890625	0		-1.111762451171875	-0.05404958343505859	0		-0.7960706787109375	-2.30904150390625	0		1.6555797119140625	-0.53762646484375	0		3.35111572265625	-0.091144287109375	0		4.78332568359375	0.08250948333740235	0		5.66743603515625	0.2206893768310547	0		-0.2757505187988281	5.88225341796875	0		
0.02366410827636719	-0.003858613967895508	0		0.49941656494140624	-2.311862060546875	0		-1.10190087890625	-0.04306840133666992	0		-0.756587158203125	-2.3044697265625	0		1.6563035888671875	-0.5329053955078125	0		3.344059326171875	-0.0735533905029297	0		4.792107421875	0.08471348571777344	0		5.65942919921875	0.22647412109375	0		-0.29331192016601565	5.87546728515625	0		
0.03641385650634766	-0.01311302375793457	0		0.5359741821289062	-2.3124765625	0		-1.0920322265625	-0.042139270782470706	0		-0.7759871215820312	-2.301226806640625	0		1.64514697265625	-0.5290770263671875	0		3.32877734375	-0.08489496612548827	0		4.77692041015625	0.07918213653564453	0		5.65499267578125	0.21480914306640625	0		-0.2946561279296875	5.87743896484375	0		
0.0044940729141235355	-0.006862607002258301	0		0.5057011108398437	-2.31131396484375	0		-1.118143798828125	-0.05082013320922851	0		-0.778260986328125	-2.30024853515625	0		1.6400472412109375	-0.5323670043945312	0		3.32372119140625	-0.08939766693115235	0		4.78493408203125	0.07833345031738281	0		5.65357177734375	0.21511796569824218	0		-0.4632210998535156	5.85344775390625	0		
0.03259383010864258	-0.011420550346374512	0		0.537419189453125	-2.323982666015625	0		-1.1199837646484374	-0.049862926483154296	0		-0.8173716430664062	-2.298865234375	0		1.6440596923828126	-0.538820556640625	0		3.344836669921875	-0.09227108001708985	0		4.773123046875	0.07969888305664062	0		5.64512548828125	0.21558950805664062	0		-0.4302825012207031	5.8588955078125	0		
0.0059121232032775875	-0.01034610366821289	0		0.48455926513671876	-2.315635986328125	0		-1.1216719970703124	-0.04897288513183594	0		-0.7714406127929687	-2.307621826171875	0		1.645365234375	-0.5342911987304687	0		3.332335693359375	-0.07676240539550781	0		4.7745263671875	0.08586331939697266	0		5.6468349609375	0.2278076934814453	0		-0.4171556701660156	5.86952587890625	0		
0.01759525489807129	0.0071818680763244625	0		0.5039087829589843	-2.304263671875	0		-1.115121337890625	-0.04125466918945313	0		-0.853017578125	-2.2898115234375	0		1.643772705078125	-0.5337765502929688	0		3.3325107421875	-0.09845883178710937	0		4.77300244140625	0.08603076934814453	0		5.649951171875	0.2157080535888672	0		-0.2989060363769531	5.87973779296875	0		
0.0029864211082458497	-0.00901414680480957	0		0.5091335754394531	-2.3147705078125	0		-1.1246060791015624	-0.04739752197265625	0		-0.78574462890625	-2.296980224609375	0		1.642326416015625	-0.5333131713867187	0		3.353354736328125	-0.07945941925048829	0		4.77852978515625	0.07907573699951172	0		5.6489541015625	0.21580189514160156	0		-0.4329405822753906	5.86113134765625	0		
0.0017294050455093383	-0.008438204765319824	0		0.5227001342773437	-2.310440673828125	0		-1.1258668212890626	-0.04671036529541016	0		-0.82422412109375	-2.295843017578125	0		1.635109619140625	-0.5258211059570312	0		3.314146240234375	-0.07471781921386719	0		4.77728173828125	0.07918067169189454	0		5.648052734375	0.21585305786132813	0		-0.43460549926757813	5.86276318359375	0		
-0.04020228958129883	0.007619104862213135	0		0.49335791015625	-2.30960107421875	0		-1.090019287109375	-0.04757399749755859	0		-0.7916361083984375	-2.300694580078125	0		1.636784423828125	-0.5364908447265625	0		3.308928955078125	-0.08045059204101562	0		4.7661708984375	0.0803914566040039	0		5.6401083984375	0.21609613037109374	0		-0.4332237548828125	5.86129638671875	0		
0.02457814025878906	-0.007783973217010498	0		0.5040651550292968	-2.315335205078125	0		-1.1199306640625	-0.03863187789916992	0		-0.8508160400390625	-2.297393310546875	0		1.638775634765625	-0.5322040405273437	0		3.3317451171875	-0.09258264923095703	0		4.77412158203125	0.07733329010009765	0		5.6494306640625	0.2278770294189453	0		-0.40449200439453126	5.88041357421875	0		
0.008805880546569824	0.002829916954040527	0		0.53403076171875	-2.31137060546875	0		-1.1168001708984374	-0.035182071685791017	0		-0.7759196166992187	-2.2989228515625	0		1.6439344482421876	-0.5239942626953125	0		3.311073486328125	-0.07415815734863282	0		4.7773408203125	0.0863275909423828	0		5.6487802734375	0.22785800170898438	0		-0.28679489135742187	5.8912890625	0		
0.011096070289611817	0.010160287857055665	0		0.49415237426757813	-2.304513916015625	0		-1.1216458740234374	-0.03767977142333984	0		-0.7918261108398438	-2.29429736328125	0		1.6369884033203126	-0.5316544189453125	0		3.297092041015625	-0.08683864593505859	0		4.77344970703125	0.07941197204589844	0		5.6452841796875	0.21582623291015626	0		-0.30231280517578124	5.88288232421875	0		
-0.0028407599925994874	-0.006333742141723633	0		0.517247802734375	-2.30853564453125	0		-1.099400634765625	-0.04059104919433594	0		-0.7957410278320313	-2.298878662109375	0		1.6362464599609374	-0.5314225463867187	0		3.316267333984375	-0.09497486877441406	0		4.7545849609375	0.06769832611083984	0		5.640591796875	0.23325950622558594	0		-0.4359393920898437	5.86402099609375	0		
-0.003468709945678711	-0.0060416488647460935	0		0.4625320129394531	-2.3055419921875	0		-1.13108154296875	-0.04382305908203125	0		-0.8324444580078125	-2.2950595703125	0		1.6355911865234376	-0.5312157592773438	0		3.321539794921875	-0.1019358139038086	0		4.7621357421875	0.08063372039794922	0		5.64849755859375	0.19665982055664064	0		-0.42212820434570314	5.87414599609375	0		
-0.018820764541625977	0.009417179107666016	0		0.4997613525390625	-2.313819580078125	0		-1.1275994873046875	-0.040570335388183595	0		-0.8211851806640625	-2.300927734375	0		1.5111038818359375	-0.5233526611328125	0		3.3042783203125	-0.07959835815429687	0		4.7646640625	0.08663772583007813	0		5.649765625	0.239877197265625	0		-0.2891376037597656	5.8946181640625	0		
0.023517675399780273	-0.0029396090507507323	0		0.47627691650390624	-2.306301025390625	0		-1.1240419921875	-0.03635739517211914	0		-0.783783447265625	-2.3021875	0		1.6406044921875	-0.5229496459960937	0		3.31457568359375	-0.0946447525024414	0		4.771076171875	0.07959021759033204	0		5.64230859375	0.24533235168457032	0		-0.4226983032226562	5.87466259765625	0		
-0.009894991874694824	-2.940849959850311E-4	0		0.516771728515625	-2.305677001953125	0		-1.1285400390625	-0.0400701789855957	0		-0.7962155151367187	-2.295802978515625	0		1.634036865234375	-0.5307213134765625	0		3.3273056640625	-0.08172937774658204	0		4.760650390625	0.08077423095703125	0		5.64325244140625	0.21591973876953124	0		-0.28967022705078127	5.895060546875	0		
-0.020157705307006835	0.010013684272766114	0		0.4862867126464844	-2.307109130859375	0		-1.1389129638671875	-0.03773232269287109	0		-0.798702880859375	-2.29758251953125	0		1.6336229248046874	-0.5305921020507812	0		3.3088369140625	-0.0863986358642578	0		4.7630751953125	0.06778170776367187	0		5.64296533203125	0.2159662322998047	0		-0.4723896789550781	5.86172607421875	0		
-0.005729156970977783	-0.005040009021759034	0		0.521716064453125	-2.31846142578125	0		-1.1333480224609376	-0.04263893890380859	0		-0.8371024780273437	-2.295896240234375	0		1.5093392333984375	-0.522785888671875	0		3.29347119140625	-0.08611846160888671	0		4.75988916015625	0.08086415100097656	0		5.645625	0.22802452087402345	0		-0.4234370422363281	5.87521533203125	0		
-0.010996573448181153	1.566680073738098E-4	0		0.47246221923828124	-2.308673583984375	0		-1.1296444091796876	-0.039543148040771484	0		-0.7875840454101563	-2.3034345703125	0		1.6477608642578125	-0.5405869140625	0		3.326061767578125	-0.0915052490234375	0		4.7644306640625	0.07183212280273438	0		5.65177392578125	0.22265713500976564	0		-0.4075503845214844	5.88313232421875	0		
0.0037605879306793215	0.005060504913330078	0		0.52810693359375	-2.309339111328125	0		-1.12185986328125	-0.03252417755126953	0		-0.8198350830078125	-2.295873779296875	0		1.52472705078125	-0.518822998046875	0		3.30906689453125	-0.06822274017333985	0		4.7723271484375	0.08674794006347657	0		5.645162109375	0.2280828094482422	0		-0.29057730102539064	5.89564501953125	0		
-0.0036197071075439453	-0.0017508020401000976	0		0.5237171630859375	-2.3142001953125	0		-1.10205126953125	-0.02568927192687988	0		-0.7522862548828125	-2.305700439453125	0		1.635341064453125	-0.5262766723632812	0		3.289467041015625	-0.09092024993896484	0		4.76178369140625	0.06790348052978516	0		5.642037109375	0.21607666015625	0		-0.42405828857421873	5.87556787109375	0		
0.018075851440429686	-0.004976555824279785	0		0.5125183715820313	-2.306981689453125	0		-1.134543212890625	-0.04215582656860352	0		-0.8364231567382813	-2.2934609375	0		1.635072021484375	-0.526225341796875	0		3.29227294921875	-0.08593543243408203	0		4.7597158203125	0.08193395233154296	0		5.64185009765625	0.2160640869140625	0		-0.4383670349121094	5.86584326171875	0		
-0.007160883903503418	-0.0045718722343444824	0		0.5200929565429687	-2.318036865234375	0		-1.097800048828125	-0.043585960388183596	0		-0.7698401489257812	-2.304306884765625	0		1.6317705078125	-0.5301467895507812	0		3.317823974609375	-0.10127915191650391	0		4.75028662109375	0.06804927062988281	0		5.634546875	0.21626512145996094	0		-0.45746173095703124	5.870171875	0		
0.017616680145263672	-0.004866541862487793	0		0.46893914794921876	-2.31029443359375	0		-1.130962646484375	-0.039066535949707035	0		-0.863017333984375	-2.297967041015625	0		1.53551025390625	-0.531801025390625	0		3.30090673828125	-0.07904818725585938	0		4.75824560546875	0.0809155044555664	0		5.6444423828125	0.22798171997070313	0		-0.2912236328125	5.89594140625	0		
-0.013241483688354492	0.0205980281829834	0		0.49872320556640626	-2.3086748046875	0		-1.1230728759765625	-0.03211993408203125	0		-0.799208740234375	-2.294795654296875	0		1.5352967529296875	-0.5317842407226563	0		3.31149267578125	-0.09420841217041015	0		4.75315234375	0.08895125579833985	0		5.64429541015625	0.2279051971435547	0		-0.4377798156738281	5.865	0		
